<svg version="1.1" xmlns="http://www.w3.org/2000/svg" width="900" height="900"><defs><clipPath id="xaEQhQCuomci"><path fill="none" stroke="none" d="M 150.5 5.5 L 870.5 5.5 L 870.5 895.5 L 150.5 895.5 L 150.5 5.5"/></clipPath><clipPath id="exCsLiOvpmHp"><path fill="none" stroke="none" d="M 150.5 5.5 L 870.5 5.5 L 870.5 895.5 L 150.5 895.5 L 150.5 5.5"/></clipPath><clipPath id="SzWDIwuqrAFh"><path fill="none" stroke="none" d="M 150.5 5.5 L 870.5 5.5 L 870.5 895.5 L 150.5 895.5 L 150.5 5.5"/></clipPath><clipPath id="aChqCZkrNoBZ"><path fill="none" stroke="none" d="M 150.5 5.5 L 870.5 5.5 L 870.5 895.5 L 150.5 895.5 L 150.5 5.5"/></clipPath><clipPath id="sLlyWQoUyBVU"><path fill="none" stroke="none" d="M 150.5 5.5 L 870.5 5.5 L 870.5 895.5 L 150.5 895.5 L 150.5 5.5"/></clipPath><clipPath id="wAurnpfsNUVa"><path fill="none" stroke="none" d="M 150.5 5.5 L 870.5 5.5 L 870.5 895.5 L 150.5 895.5 L 150.5 5.5"/></clipPath><clipPath id="JWtTPMrdqSSt"><path fill="none" stroke="none" d="M 150.5 5.5 L 870.5 5.5 L 870.5 895.5 L 150.5 895.5 L 150.5 5.5"/></clipPath></defs><path fill="rgb(255,255,255)" stroke="none" paint-order="stroke" d="M 0.5 0.5 L 900.5 0.5 L 900.5 900.5 L 0.5 900.5 L 0.5 0.5" fill-opacity="1"/><rect fill="#FFFFFF" stroke="none" x="150" y="5" width="720" height="890" transform="matrix(1, 0, 0, 1, 0.5, 0.5)"/><path fill="rgb(255,255,255)" stroke="none" paint-order="stroke" d="M 150.5 5.5 L 870.5 5.5 L 870.5 895.5 L 150.5 895.5 L 150.5 5.5" fill-opacity="1"/><path fill="none" stroke="rgb(255,255,255)" paint-order="fill" d="M 150.5 5.5 L 870.5 5.5 L 870.5 895.5 L 150.5 895.5 L 150.5 5.5" stroke-opacity="1" stroke-linejoin="bevel" stroke-miterlimit="10" stroke-dasharray=""/><path fill="none" stroke="rgb(121,121,121)" paint-order="fill" d="M 837.772705078125 797.2077026367188 L 744.2662353515625 797.2077026367188 L 650.759765625 136.4048614501953 L 557.2532348632812 136.4048614501953 L 463.74676513671875 711.8980712890625 L 370.2402648925781 711.8980712890625 L 276.7337646484375 108.30919647216797 L 183.22727966308594 108.30919647216797" stroke-opacity="1" stroke-linejoin="bevel" stroke-miterlimit="10" stroke-width="4" stroke-dasharray="" clip-path="url(#SzWDIwuqrAFh)"/><path fill="rgb(121,121,121)" stroke="none" paint-order="stroke" d="M 744.2662353515625 783.1254272460938 L 837.7727279663086 783.1254272460938 L 837.7727279663086 811.2899837493896 L 744.2662353515625 811.2899837493896 L 744.2662353515625 783.1254272460938" fill-opacity="0.9019607843137255" clip-path="url(#aChqCZkrNoBZ)"/><path fill="rgb(121,121,121)" stroke="none" paint-order="stroke" d="M 557.2532348632812 122.32259368896484 L 650.7597274780273 122.32259368896484 L 650.7597274780273 150.48715019226074 L 557.2532348632812 150.48715019226074 L 557.2532348632812 122.32259368896484" fill-opacity="0.9019607843137255" clip-path="url(#aChqCZkrNoBZ)"/><path fill="rgb(121,121,121)" stroke="none" paint-order="stroke" d="M 370.2402648925781 697.8157958984375 L 463.7467575073242 697.8157958984375 L 463.7467575073242 725.9803524017334 L 370.2402648925781 725.9803524017334 L 370.2402648925781 697.8157958984375" fill-opacity="0.9019607843137255" clip-path="url(#aChqCZkrNoBZ)"/><path fill="rgb(121,121,121)" stroke="none" paint-order="stroke" d="M 183.22727966308594 94.22691345214844 L 276.73377227783203 94.22691345214844 L 276.73377227783203 122.39146995544434 L 183.22727966308594 122.39146995544434 L 183.22727966308594 94.22691345214844" fill-opacity="0.9019607843137255" clip-path="url(#aChqCZkrNoBZ)"/><path fill="none" stroke="rgb(0,0,0)" paint-order="fill" d="M 150.5 895.5 L 150.5 5.5" stroke-opacity="1" stroke-linejoin="bevel" stroke-miterlimit="10" stroke-dasharray=""/><path fill="none" stroke="rgb(0,0,0)" paint-order="fill" d="M 144.5 788.5 L 152.5 788.5 M 144.5 675.5 L 152.5 675.5 M 144.5 563.5 L 152.5 563.5 M 144.5 450.5 L 152.5 450.5 M 144.5 337.5 L 152.5 337.5 M 144.5 225.5 L 152.5 225.5 M 144.5 112.5 L 152.5 112.5" stroke-opacity="1" stroke-linejoin="bevel" stroke-miterlimit="10" stroke-dasharray=""/><path fill="none" stroke="rgb(0,0,0)" paint-order="fill" d="" stroke-opacity="1" stroke-linejoin="bevel" stroke-miterlimit="10" stroke-dasharray=""/><text fill="rgb(68,68,68)" stroke="none" font-family="helvetica" font-size="21pt" font-style="normal" font-weight="normal" text-decoration="normal" x="123.43333339691162" y="797.9961547851562" text-anchor="start" dominant-baseline="alphabetic" transform="matrix(1, 0, 0, 1, 0.5, 0.5)" fill-opacity="1">0</text><text fill="rgb(68,68,68)" stroke="none" font-family="helvetica" font-size="21pt" font-style="normal" font-weight="normal" text-decoration="normal" x="107.86666679382324" y="685.3379516601562" text-anchor="start" dominant-baseline="alphabetic" transform="matrix(1, 0, 0, 1, 0.5, 0.5)" fill-opacity="1">20</text><text fill="rgb(68,68,68)" stroke="none" font-family="helvetica" font-size="21pt" font-style="normal" font-weight="normal" text-decoration="normal" x="107.86666679382324" y="572.6796875" text-anchor="start" dominant-baseline="alphabetic" transform="matrix(1, 0, 0, 1, 0.5, 0.5)" fill-opacity="1">40</text><text fill="rgb(68,68,68)" stroke="none" font-family="helvetica" font-size="21pt" font-style="normal" font-weight="normal" text-decoration="normal" x="107.86666679382324" y="460.021484375" text-anchor="start" dominant-baseline="alphabetic" transform="matrix(1, 0, 0, 1, 0.5, 0.5)" fill-opacity="1">60</text><text fill="rgb(68,68,68)" stroke="none" font-family="helvetica" font-size="21pt" font-style="normal" font-weight="normal" text-decoration="normal" x="107.86666679382324" y="347.3632507324219" text-anchor="start" dominant-baseline="alphabetic" transform="matrix(1, 0, 0, 1, 0.5, 0.5)" fill-opacity="1">80</text><text fill="rgb(68,68,68)" stroke="none" font-family="helvetica" font-size="21pt" font-style="normal" font-weight="normal" text-decoration="normal" x="92.29999923706055" y="234.7050323486328" text-anchor="start" dominant-baseline="alphabetic" transform="matrix(1, 0, 0, 1, 0.5, 0.5)" fill-opacity="1">100</text><text fill="rgb(68,68,68)" stroke="none" font-family="helvetica" font-size="21pt" font-style="normal" font-weight="normal" text-decoration="normal" x="92.29999923706055" y="122.04679870605469" text-anchor="start" dominant-baseline="alphabetic" transform="matrix(1, 0, 0, 1, 0.5, 0.5)" fill-opacity="1">120</text><text fill="rgb(68,68,68)" stroke="none" font-family="helvetica" font-size="35pt" font-style="normal" font-weight="bold" text-decoration="normal" x="-46.658329010009766" y="440.1790364583333" text-anchor="start" dominant-baseline="alphabetic" transform="matrix(6.123233995736766e-17, -1, 1, 6.123233995736766e-17, -365.20000076293945, 534.7999992370605)" fill-opacity="1">E (kcal/mol)</text><g clip-path="url(#sLlyWQoUyBVU)"><text fill="rgb(68,68,68)" stroke="none" font-family="helvetica" font-size="27pt" font-style="normal" font-weight="normal" text-decoration="normal" x="758.5194702148438" y="779.1315307617188" text-anchor="start" dominant-baseline="alphabetic" transform="matrix(1, 0, 0, 1, 0.5, 0.5)" fill-opacity="1">MIN1</text></g><g clip-path="url(#sLlyWQoUyBVU)"><text fill="rgb(68,68,68)" stroke="none" font-family="helvetica" font-size="27pt" font-style="normal" font-weight="normal" text-decoration="normal" x="571.5064697265625" y="118.32868957519531" text-anchor="start" dominant-baseline="alphabetic" transform="matrix(1, 0, 0, 1, 0.5, 0.5)" fill-opacity="1">TS45</text></g><g clip-path="url(#sLlyWQoUyBVU)"><text fill="rgb(68,68,68)" stroke="none" font-family="helvetica" font-size="27pt" font-style="normal" font-weight="normal" text-decoration="normal" x="384.4934997558594" y="693.8218994140625" text-anchor="start" dominant-baseline="alphabetic" transform="matrix(1, 0, 0, 1, 0.5, 0.5)" fill-opacity="1">MIN7</text></g><g clip-path="url(#sLlyWQoUyBVU)"><text fill="rgb(68,68,68)" stroke="none" font-family="helvetica" font-size="27pt" font-style="normal" font-weight="normal" text-decoration="normal" x="197.4805145263672" y="90.23302459716797" text-anchor="start" dominant-baseline="alphabetic" transform="matrix(1, 0, 0, 1, 0.5, 0.5)" fill-opacity="1">PR44</text></g><g clip-path="url(#wAurnpfsNUVa)"><text fill="rgb(68,68,68)" stroke="none" font-family="helvetica" font-size="27pt" font-style="normal" font-weight="normal" text-decoration="normal" x="758.5194702148438" y="844.7077026367188" text-anchor="start" dominant-baseline="alphabetic" transform="matrix(1, 0, 0, 1, 0.5, 0.5)" fill-opacity="1">-1.6</text></g><g clip-path="url(#wAurnpfsNUVa)"><text fill="rgb(68,68,68)" stroke="none" font-family="helvetica" font-size="27pt" font-style="normal" font-weight="normal" text-decoration="normal" x="571.5064697265625" y="183.9048614501953" text-anchor="start" dominant-baseline="alphabetic" transform="matrix(1, 0, 0, 1, 0.5, 0.5)" fill-opacity="1">115.8</text></g><g clip-path="url(#wAurnpfsNUVa)"><text fill="rgb(68,68,68)" stroke="none" font-family="helvetica" font-size="27pt" font-style="normal" font-weight="normal" text-decoration="normal" x="384.4934997558594" y="759.3980712890625" text-anchor="start" dominant-baseline="alphabetic" transform="matrix(1, 0, 0, 1, 0.5, 0.5)" fill-opacity="1">13.6</text></g><g clip-path="url(#wAurnpfsNUVa)"><text fill="rgb(68,68,68)" stroke="none" font-family="helvetica" font-size="27pt" font-style="normal" font-weight="normal" text-decoration="normal" x="197.4805145263672" y="155.80919647216797" text-anchor="start" dominant-baseline="alphabetic" transform="matrix(1, 0, 0, 1, 0.5, 0.5)" fill-opacity="1">120.7</text></g></svg>